<svg width="1600" height="900" viewBox="0 0 1600 900" fill="none" xmlns="http://www.w3.org/2000/svg">
  <defs>
    <linearGradient id="bg" x1="0" y1="0" x2="1600" y2="900" gradientUnits="userSpaceOnUse">
      <stop stop-color="#F8FBFF"/>
      <stop offset="1" stop-color="#E8F0FA"/>
    </linearGradient>
    <linearGradient id="panel" x1="220" y1="140" x2="1380" y2="760" gradientUnits="userSpaceOnUse">
      <stop stop-color="#FFFFFF"/>
      <stop offset="1" stop-color="#F3F8FE"/>
    </linearGradient>
    <linearGradient id="blue" x1="400" y1="100" x2="980" y2="520" gradientUnits="userSpaceOnUse">
      <stop stop-color="#2563EB"/>
      <stop offset="1" stop-color="#38BDF8"/>
    </linearGradient>
    <linearGradient id="gold" x1="980" y1="260" x2="1250" y2="520" gradientUnits="userSpaceOnUse">
      <stop stop-color="#F5C56E"/>
      <stop offset="1" stop-color="#D97706"/>
    </linearGradient>
    <filter id="shadow" x="-20%" y="-20%" width="140%" height="140%">
      <feDropShadow dx="0" dy="28" stdDeviation="30" flood-color="#0F172A" flood-opacity="0.12"/>
    </filter>
    <filter id="soft" x="-20%" y="-20%" width="140%" height="140%">
      <feDropShadow dx="0" dy="18" stdDeviation="20" flood-color="#1E3A8A" flood-opacity="0.10"/>
    </filter>
  </defs>

  <rect width="1600" height="900" fill="url(#bg)"/>
  <circle cx="260" cy="170" r="170" fill="#2563EB" fill-opacity="0.10"/>
  <circle cx="1350" cy="160" r="220" fill="#38BDF8" fill-opacity="0.10"/>
  <circle cx="1320" cy="760" r="170" fill="#F5C56E" fill-opacity="0.10"/>

  <rect x="80" y="70" width="1440" height="760" rx="44" fill="url(#panel)" stroke="#D8E4F4" filter="url(#shadow)"/>

  <rect x="120" y="110" width="220" height="56" rx="28" fill="#FFFFFF" stroke="#D9E8FA"/>
  <circle cx="150" cy="138" r="20" fill="url(#blue)"/>
  <text x="182" y="145" fill="#0F172A" font-family="Noto Sans TC, PingFang TC, Microsoft JhengHei, sans-serif" font-size="18" font-weight="800">將御線上理財平台</text>

  <text x="120" y="258" fill="#2563EB" font-family="Noto Sans TC, PingFang TC, Microsoft JhengHei, sans-serif" font-size="18" font-weight="700" letter-spacing="2">CONSULTING PLATFORM</text>
  <text x="120" y="342" fill="#0F172A" font-family="Noto Serif TC, Songti TC, serif" font-size="76" font-weight="700">把貸款諮詢</text>
  <text x="120" y="424" fill="#0F172A" font-family="Noto Serif TC, Songti TC, serif" font-size="76" font-weight="700">做成精品體驗</text>
  <text x="120" y="486" fill="#475569" font-family="Noto Sans TC, PingFang TC, Microsoft JhengHei, sans-serif" font-size="24" font-weight="500">
    用更乾淨的視覺、更清楚的流程與更高信任感，
  </text>
  <text x="120" y="526" fill="#475569" font-family="Noto Sans TC, PingFang TC, Microsoft JhengHei, sans-serif" font-size="24" font-weight="500">
    讓使用者更願意留下資料、完成諮詢。
  </text>

  <rect x="120" y="592" width="210" height="68" rx="22" fill="#2563EB"/>
  <text x="164" y="635" fill="#FFFFFF" font-family="Noto Sans TC, PingFang TC, Microsoft JhengHei, sans-serif" font-size="22" font-weight="800">立即免費評估</text>
  <rect x="348" y="592" width="210" height="68" rx="22" fill="#FFFFFF" stroke="#CBD5E1"/>
  <text x="398" y="635" fill="#1E293B" font-family="Noto Sans TC, PingFang TC, Microsoft JhengHei, sans-serif" font-size="22" font-weight="700">查看方案</text>

  <rect x="120" y="700" width="140" height="84" rx="24" fill="#FFFFFF" stroke="#D9E8FA"/>
  <text x="146" y="736" fill="#2563EB" font-family="Noto Sans TC, PingFang TC, Microsoft JhengHei, sans-serif" font-size="14" font-weight="700">快速回覆</text>
  <text x="146" y="770" fill="#0F172A" font-family="Noto Sans TC, PingFang TC, Microsoft JhengHei, sans-serif" font-size="24" font-weight="900">營業時間內</text>

  <rect x="276" y="700" width="140" height="84" rx="24" fill="#FFFFFF" stroke="#D9E8FA"/>
  <text x="302" y="736" fill="#2563EB" font-family="Noto Sans TC, PingFang TC, Microsoft JhengHei, sans-serif" font-size="14" font-weight="700">專人協助</text>
  <text x="302" y="770" fill="#0F172A" font-family="Noto Sans TC, PingFang TC, Microsoft JhengHei, sans-serif" font-size="24" font-weight="900">1 對 1</text>

  <rect x="432" y="700" width="140" height="84" rx="24" fill="#FFFFFF" stroke="#D9E8FA"/>
  <text x="458" y="736" fill="#2563EB" font-family="Noto Sans TC, PingFang TC, Microsoft JhengHei, sans-serif" font-size="14" font-weight="700">流程透明</text>
  <text x="458" y="770" fill="#0F172A" font-family="Noto Sans TC, PingFang TC, Microsoft JhengHei, sans-serif" font-size="24" font-weight="900">清楚安心</text>

  <rect x="820" y="150" width="640" height="560" rx="40" fill="#FFFFFF" stroke="#D9E8FA" filter="url(#soft)"/>
  <rect x="858" y="188" width="564" height="108" rx="30" fill="#F8FBFF" stroke="#D9E8FA"/>
  <text x="894" y="238" fill="#2563EB" font-family="Noto Sans TC, PingFang TC, Microsoft JhengHei, sans-serif" font-size="18" font-weight="700">即時諮詢面板</text>
  <text x="894" y="276" fill="#0F172A" font-family="Noto Sans TC, PingFang TC, Microsoft JhengHei, sans-serif" font-size="28" font-weight="900">30 秒留下資料，專人快速回覆</text>

  <rect x="858" y="320" width="564" height="150" rx="30" fill="#FFFFFF" stroke="#D9E8FA"/>
  <text x="894" y="362" fill="#64748B" font-family="Noto Sans TC, PingFang TC, Microsoft JhengHei, sans-serif" font-size="16" font-weight="700">姓名</text>
  <rect x="894" y="380" width="492" height="48" rx="16" fill="#F8FAFC" stroke="#E2E8F0"/>
  <text x="914" y="411" fill="#94A3B8" font-family="Noto Sans TC, PingFang TC, Microsoft JhengHei, sans-serif" font-size="16" font-weight="500">請輸入姓名</text>

  <rect x="858" y="492" width="270" height="112" rx="26" fill="#F8FBFF" stroke="#D9E8FA"/>
  <text x="894" y="536" fill="#64748B" font-family="Noto Sans TC, PingFang TC, Microsoft JhengHei, sans-serif" font-size="16" font-weight="700">需求金額</text>
  <text x="894" y="574" fill="#0F172A" font-family="Noto Sans TC, PingFang TC, Microsoft JhengHei, sans-serif" font-size="30" font-weight="900">10 - 30 萬</text>

  <rect x="1152" y="492" width="270" height="112" rx="26" fill="#FFF7ED" stroke="#FCD9A6"/>
  <text x="1188" y="536" fill="#B45309" font-family="Noto Sans TC, PingFang TC, Microsoft JhengHei, sans-serif" font-size="16" font-weight="700">服務方式</text>
  <text x="1188" y="574" fill="#0F172A" font-family="Noto Sans TC, PingFang TC, Microsoft JhengHei, sans-serif" font-size="30" font-weight="900">LINE / 電話</text>

  <rect x="858" y="624" width="564" height="64" rx="22" fill="url(#blue)"/>
  <text x="1100" y="665" fill="#FFFFFF" font-family="Noto Sans TC, PingFang TC, Microsoft JhengHei, sans-serif" font-size="22" font-weight="800">立即送出免費評估</text>

  <rect x="842" y="734" width="596" height="86" rx="28" fill="#0F172A"/>
  <text x="878" y="786" fill="#FFFFFF" font-family="Noto Sans TC, PingFang TC, Microsoft JhengHei, sans-serif" font-size="20" font-weight="800">高級顧問平台風格</text>
  <text x="1212" y="786" fill="#CBD5E1" font-family="Noto Sans TC, PingFang TC, Microsoft JhengHei, sans-serif" font-size="16" font-weight="500">Blue / White / Light Gray</text>

  <path d="M970 270C1060 210 1200 220 1310 300" stroke="url(#gold)" stroke-width="18" stroke-linecap="round"/>
  <path d="M998 322C1088 262 1214 276 1302 350" stroke="#2563EB" stroke-width="12" stroke-linecap="round" stroke-opacity="0.55"/>

  <circle cx="1288" cy="224" r="12" fill="#2563EB"/>
  <circle cx="1336" cy="258" r="10" fill="#38BDF8"/>
  <circle cx="1378" cy="298" r="8" fill="#F5C56E"/>
</svg>
