<svg width="1600" height="1200" viewBox="0 0 1600 1200" fill="none" xmlns="http://www.w3.org/2000/svg">
  <defs>
    <linearGradient id="bg" x1="0" y1="0" x2="1600" y2="1200" gradientUnits="userSpaceOnUse">
      <stop stop-color="#F8FBFF"/>
      <stop offset="1" stop-color="#EAF2FB"/>
    </linearGradient>
    <linearGradient id="hero" x1="180" y1="140" x2="1480" y2="1100" gradientUnits="userSpaceOnUse">
      <stop stop-color="#FFFFFF"/>
      <stop offset="1" stop-color="#EFF6FF"/>
    </linearGradient>
    <linearGradient id="blue" x1="180" y1="0" x2="520" y2="320" gradientUnits="userSpaceOnUse">
      <stop stop-color="#2563EB"/>
      <stop offset="1" stop-color="#38BDF8"/>
    </linearGradient>
    <filter id="shadow" x="-20%" y="-20%" width="140%" height="140%">
      <feDropShadow dx="0" dy="24" stdDeviation="24" flood-color="#0F172A" flood-opacity="0.10"/>
    </filter>
  </defs>

  <rect width="1600" height="1200" fill="url(#bg)"/>
  <rect x="80" y="50" width="1440" height="76" rx="38" fill="#FFFFFF" fill-opacity="0.88" stroke="#D8E4F4"/>

  <rect x="108" y="64" width="48" height="48" rx="16" fill="url(#blue)"/>
  <path d="M120 82H144" stroke="white" stroke-width="5" stroke-linecap="round"/>
  <path d="M120 96H136" stroke="white" stroke-width="5" stroke-linecap="round"/>
  <text x="176" y="94" fill="#0F172A" font-family="Noto Sans TC, PingFang TC, Microsoft JhengHei, sans-serif" font-size="28" font-weight="800">將御線上理財平台</text>
  <text x="176" y="116" fill="#64748B" font-family="Noto Sans TC, PingFang TC, Microsoft JhengHei, sans-serif" font-size="14" font-weight="600">專業貸款諮詢平台</text>

  <text x="1120" y="96" fill="#334155" font-family="Noto Sans TC, PingFang TC, Microsoft JhengHei, sans-serif" font-size="18" font-weight="600">服務特色</text>
  <text x="1230" y="96" fill="#334155" font-family="Noto Sans TC, PingFang TC, Microsoft JhengHei, sans-serif" font-size="18" font-weight="600">流程</text>
  <text x="1310" y="96" fill="#334155" font-family="Noto Sans TC, PingFang TC, Microsoft JhengHei, sans-serif" font-size="18" font-weight="600">方案</text>
  <text x="1390" y="96" fill="#334155" font-family="Noto Sans TC, PingFang TC, Microsoft JhengHei, sans-serif" font-size="18" font-weight="600">FAQ</text>
  <rect x="1456" y="62" width="44" height="44" rx="22" fill="#2563EB"/>

  <rect x="80" y="150" width="1440" height="970" rx="44" fill="url(#hero)" filter="url(#shadow)"/>
  <rect x="102" y="172" width="700" height="926" rx="36" fill="url(#blue)" opacity="0.12"/>
  <circle cx="270" cy="300" r="120" fill="#2563EB" fill-opacity="0.14"/>
  <circle cx="510" cy="230" r="70" fill="#38BDF8" fill-opacity="0.18"/>

  <rect x="112" y="194" width="256" height="34" rx="17" fill="#FFFFFF" stroke="#D9E8FA"/>
  <text x="132" y="217" fill="#1D4ED8" font-family="Noto Sans TC, PingFang TC, Microsoft JhengHei, sans-serif" font-size="16" font-weight="700">銀行級品牌感</text>

  <text x="112" y="330" fill="#0F172A" font-family="Noto Serif TC, Songti TC, serif" font-size="84" font-weight="700">讓貸款首頁</text>
  <text x="112" y="424" fill="#0F172A" font-family="Noto Serif TC, Songti TC, serif" font-size="84" font-weight="700">更像精品金融</text>
  <text x="112" y="474" fill="#475569" font-family="Noto Sans TC, PingFang TC, Microsoft JhengHei, sans-serif" font-size="24" font-weight="500">藍白灰的專業感，搭配高轉換表單與清楚導流。</text>

  <rect x="112" y="526" width="208" height="64" rx="20" fill="#2563EB"/>
  <text x="154" y="568" fill="white" font-family="Noto Sans TC, PingFang TC, Microsoft JhengHei, sans-serif" font-size="22" font-weight="800">立即諮詢</text>
  <rect x="336" y="526" width="208" height="64" rx="20" fill="#FFFFFF" stroke="#CBD5E1"/>
  <text x="379" y="568" fill="#1E293B" font-family="Noto Sans TC, PingFang TC, Microsoft JhengHei, sans-serif" font-size="22" font-weight="700">看服務內容</text>

  <rect x="112" y="636" width="260" height="132" rx="28" fill="#FFFFFF" stroke="#D9E8FA"/>
  <text x="136" y="678" fill="#2563EB" font-family="Noto Sans TC, PingFang TC, Microsoft JhengHei, sans-serif" font-size="16" font-weight="700">快速回覆</text>
  <text x="136" y="718" fill="#0F172A" font-family="Noto Sans TC, PingFang TC, Microsoft JhengHei, sans-serif" font-size="28" font-weight="900">營業時間內</text>

  <rect x="392" y="636" width="260" height="132" rx="28" fill="#FFFFFF" stroke="#D9E8FA"/>
  <text x="416" y="678" fill="#2563EB" font-family="Noto Sans TC, PingFang TC, Microsoft JhengHei, sans-serif" font-size="16" font-weight="700">專人協助</text>
  <text x="416" y="718" fill="#0F172A" font-family="Noto Sans TC, PingFang TC, Microsoft JhengHei, sans-serif" font-size="28" font-weight="900">1 對 1</text>

  <rect x="672" y="636" width="540" height="392" rx="36" fill="#FFFFFF" stroke="#D9E8FA" filter="url(#shadow)"/>
  <rect x="702" y="666" width="96" height="96" rx="28" fill="#EFF6FF"/>
  <text x="726" y="721" fill="#2563EB" font-family="Noto Sans TC, PingFang TC, Microsoft JhengHei, sans-serif" font-size="30" font-weight="900">貸</text>
  <text x="824" y="700" fill="#0F172A" font-family="Noto Sans TC, PingFang TC, Microsoft JhengHei, sans-serif" font-size="28" font-weight="800">免費表單諮詢</text>
  <text x="824" y="736" fill="#64748B" font-family="Noto Sans TC, PingFang TC, Microsoft JhengHei, sans-serif" font-size="18" font-weight="500">30 秒留下基本資料，降低填單壓力。</text>

  <rect x="702" y="790" width="486" height="58" rx="18" fill="#F8FAFC" stroke="#E2E8F0"/>
  <text x="724" y="826" fill="#334155" font-family="Noto Sans TC, PingFang TC, Microsoft JhengHei, sans-serif" font-size="18" font-weight="600">姓名</text>
  <rect x="702" y="862" width="230" height="58" rx="18" fill="#F8FAFC" stroke="#E2E8F0"/>
  <text x="724" y="898" fill="#94A3B8" font-family="Noto Sans TC, PingFang TC, Microsoft JhengHei, sans-serif" font-size="18" font-weight="500">手機號碼</text>
  <rect x="958" y="862" width="230" height="58" rx="18" fill="#F8FAFC" stroke="#E2E8F0"/>
  <text x="980" y="898" fill="#94A3B8" font-family="Noto Sans TC, PingFang TC, Microsoft JhengHei, sans-serif" font-size="18" font-weight="500">需求金額</text>
  <rect x="702" y="936" width="486" height="62" rx="20" fill="#2563EB"/>
  <text x="865" y="976" fill="white" font-family="Noto Sans TC, PingFang TC, Microsoft JhengHei, sans-serif" font-size="22" font-weight="800">立即送出免費評估</text>
</svg>
