<svg xmlns="http://www.w3.org/2000/svg" width="1200" height="800" viewBox="0 0 1200 800" fill="none">
  <defs>
    <linearGradient id="bg" x1="0" y1="0" x2="1200" y2="800" gradientUnits="userSpaceOnUse">
      <stop stop-color="#0E2148"/>
      <stop offset="0.48" stop-color="#2E69B7"/>
      <stop offset="1" stop-color="#A8D9FF"/>
    </linearGradient>
    <linearGradient id="accent" x1="370" y1="170" x2="880" y2="620" gradientUnits="userSpaceOnUse">
      <stop stop-color="#F5C84C"/>
      <stop offset="1" stop-color="#FF8E5E"/>
    </linearGradient>
    <filter id="glow" x="-20%" y="-20%" width="140%" height="140%">
      <feGaussianBlur stdDeviation="18" result="blur" />
      <feColorMatrix in="blur" type="matrix" values="1 0 0 0 0.21 0 1 0 0 0.56 0 0 1 0 0.95 0 0 0 0.46 0" />
    </filter>
  </defs>
  <rect width="1200" height="800" rx="42" fill="url(#bg)"/>
  <circle cx="1000" cy="160" r="180" fill="#ffffff" fill-opacity="0.11"/>
  <circle cx="900" cy="600" r="250" fill="#ffffff" fill-opacity="0.08"/>
  <circle cx="250" cy="620" r="220" fill="#ffffff" fill-opacity="0.06"/>
  <path d="M105 610c120-70 250-95 380-80 130 15 206 74 344 81 112 6 217-32 268-58v125H105V610Z" fill="#0A1833" fill-opacity="0.22"/>
  <path d="M110 555c105-70 244-83 357-56 122 29 191 83 328 92 148 9 231-30 301-69" stroke="#ffffff" stroke-opacity="0.22" stroke-width="10" stroke-linecap="round"/>
  <g opacity="0.55">
    <circle cx="165" cy="170" r="16" fill="#fff"/>
    <circle cx="225" cy="140" r="8" fill="#fff"/>
    <circle cx="946" cy="208" r="10" fill="#fff"/>
    <circle cx="1015" cy="260" r="7" fill="#fff"/>
  </g>
  <g filter="url(#glow)">
    <circle cx="885" cy="548" r="100" fill="#ffffff" fill-opacity="0.17"/>
    <circle cx="885" cy="548" r="60" fill="#ffffff" fill-opacity="0.18"/>
  </g>
  <g transform="translate(760 235) rotate(12)">
    <rect x="0" y="0" width="210" height="390" rx="34" fill="#FFFFFF" fill-opacity="0.22" stroke="#fff" stroke-opacity="0.35"/>
    <rect x="24" y="28" width="162" height="280" rx="24" fill="#0F2B5A" fill-opacity="0.78"/>
    <rect x="44" y="48" width="122" height="52" rx="16" fill="#fff" fill-opacity="0.14"/>
    <rect x="43" y="118" width="124" height="124" rx="24" fill="url(#accent)"/>
    <circle cx="105" cy="180" r="34" fill="#fff"/>
    <path d="M90 180l11 12 23-27" stroke="#1B7C66" stroke-width="10" stroke-linecap="round" stroke-linejoin="round"/>
    <rect x="43" y="258" width="124" height="28" rx="14" fill="#fff" fill-opacity="0.18"/>
    <rect x="78" y="320" width="54" height="14" rx="7" fill="#fff" fill-opacity="0.5"/>
    <rect x="86" y="20" width="38" height="6" rx="3" fill="#fff" fill-opacity="0.5"/>
  </g>
  <g transform="translate(220 165)">
    <text x="0" y="0" fill="#FFFFFF" fill-opacity="0.9" font-size="52" font-weight="800" font-family="Noto Sans TC, sans-serif">學生手機貸</text>
    <text x="0" y="78" fill="#F5C84C" font-size="80" font-weight="900" font-family="Noto Sans TC, sans-serif">最高 15 萬</text>
    <text x="0" y="146" fill="#EAF5FF" font-size="34" font-weight="700" font-family="Noto Sans TC, sans-serif">手機免抵押・不限機種・撥款快速</text>
  </g>
  <g transform="translate(102 536)">
    <rect width="220" height="72" rx="28" fill="#ffffff" fill-opacity="0.14" stroke="#fff" stroke-opacity="0.22"/>
    <text x="110" y="46" text-anchor="middle" fill="#FFFFFF" font-size="30" font-weight="800" font-family="Noto Sans TC, sans-serif">免留手機</text>
  </g>
  <g transform="translate(335 536)">
    <rect width="220" height="72" rx="28" fill="#ffffff" fill-opacity="0.12" stroke="#fff" stroke-opacity="0.2"/>
    <text x="110" y="46" text-anchor="middle" fill="#FFFFFF" font-size="30" font-weight="800" font-family="Noto Sans TC, sans-serif">審核快</text>
  </g>
  <g transform="translate(568 536)">
    <rect width="220" height="72" rx="28" fill="#ffffff" fill-opacity="0.12" stroke="#fff" stroke-opacity="0.2"/>
    <text x="110" y="46" text-anchor="middle" fill="#FFFFFF" font-size="30" font-weight="800" font-family="Noto Sans TC, sans-serif">流程簡單</text>
  </g>
</svg>
