<svg xmlns="http://www.w3.org/2000/svg" viewBox="0 0 1200 800" width="1200" height="800" role="img" aria-label="無標準 SOP">
  
      <defs>
        <linearGradient id="bg" x1="0%" y1="0%" x2="100%" y2="100%">
          <stop offset="0%" stop-color="#10203B"/>
          <stop offset="55%" stop-color="#3367AB"/>
          <stop offset="100%" stop-color="#D7ECFF"/>
        </linearGradient>
        <linearGradient id="soft" x1="0%" y1="0%" x2="0%" y2="100%">
          <stop offset="0%" stop-color="white" stop-opacity="0.22"/>
          <stop offset="100%" stop-color="white" stop-opacity="0"/>
        </linearGradient>
        <filter id="blur25" x="-20%" y="-20%" width="140%" height="140%">
          <feGaussianBlur stdDeviation="25"/>
        </filter>
        <filter id="blur12" x="-20%" y="-20%" width="140%" height="140%">
          <feGaussianBlur stdDeviation="12"/>
        </filter>
        <filter id="shadow" x="-20%" y="-20%" width="140%" height="140%">
          <feDropShadow dx="0" dy="18" stdDeviation="18" flood-color="#03111f" flood-opacity="0.24"/>
        </filter>
      </defs>
      <rect width="1200" height="800" rx="42" fill="url(#bg)"/>
      <circle cx="992" cy="132" r="170" fill="white" opacity="0.11" filter="url(#blur25)"/>
      <circle cx="110" cy="530" r="190" fill="white" opacity="0.10" filter="url(#blur25)"/>
      <circle cx="1060" cy="620" r="220" fill="white" opacity="0.08" filter="url(#blur25)"/>
      <path d="M0 610 C180 520, 330 530, 520 620 S 920 700, 1200 590 L 1200 800 L 0 800 Z" fill="url(#soft)" opacity="0.85"/>
    
  
      <g filter="url(#shadow)">
        <rect x="62" y="62" width="176" height="52" rx="18" fill="white" fill-opacity="0.16"/>
        <text x="150" y="95" text-anchor="middle" font-size="24" font-weight="800" fill="white">營運資金</text>
        <text x="64" y="162" font-size="30" font-weight="800" fill="white">報表、營運、周轉</text>
      </g>
    
  <g filter="url(#shadow)">
    <rect x="64" y="194" width="304" height="72" rx="24" fill="white" fill-opacity="0.14"/>
    <text x="216" y="240" text-anchor="middle" font-size="28" font-weight="800" fill="white">營運資金</text>
  </g>
  <g transform="translate(10,0)">
    
      <g filter="url(#shadow)">
        <rect x="640" y="204" width="416" height="322" rx="34" fill="white" fill-opacity="0.12" stroke="white" stroke-opacity="0.16"/>
        <rect x="722" y="288" width="82" height="164" rx="16" fill="white" fill-opacity="0.76"/>
        <rect x="826" y="250" width="90" height="202" rx="16" fill="white" fill-opacity="0.62"/>
        <rect x="936" y="316" width="68" height="136" rx="16" fill="#F7BE62"/>
        <path d="M702 450 H1026" stroke="white" stroke-opacity="0.22" stroke-width="10" stroke-linecap="round"/>
        <path d="M770 360 L848 324 L906 346 L978 286" stroke="#F7BE62" stroke-width="10" fill="none" stroke-linecap="round" stroke-linejoin="round"/>
        <path d="M960 282 L1000 282" stroke="#F7BE62" stroke-width="10" stroke-linecap="round"/>
      </g>
    
  </g>
  <g filter="url(#shadow)">
    <rect x="92" y="626" width="272" height="44" rx="16" fill="white" fill-opacity="0.16"/>
    <text x="228" y="655" text-anchor="middle" font-size="22" font-weight="800" fill="white">無標準 SOP</text>
  </g>
  
              <g filter="url(#shadow)">
                <rect x="104" y="694" width="146" height="42" rx="16" fill="white" fill-opacity="0.18" stroke="white" stroke-opacity="0.14"/>
                <text x="177.0" y="721" text-anchor="middle" font-size="20" font-weight="700" fill="white">營運資金</text>
              </g>
            

              <g filter="url(#shadow)">
                <rect x="266" y="694" width="146" height="42" rx="16" fill="white" fill-opacity="0.18" stroke="white" stroke-opacity="0.14"/>
                <text x="339.0" y="721" text-anchor="middle" font-size="20" font-weight="700" fill="white">報表整理</text>
              </g>
            

              <g filter="url(#shadow)">
                <rect x="428" y="694" width="146" height="42" rx="16" fill="white" fill-opacity="0.18" stroke="white" stroke-opacity="0.14"/>
                <text x="501.0" y="721" text-anchor="middle" font-size="20" font-weight="700" fill="white">企業審視</text>
              </g>
            
  <g opacity="0.28">
    <circle cx="163" cy="481" r="18" fill="#F8C07A"/>
    <circle cx="967" cy="205" r="20" fill="#F8C07A"/>
  </g>
</svg>
