<svg xmlns="http://www.w3.org/2000/svg" viewBox="0 0 1200 800" width="1200" height="800" role="img" aria-label="信用評分不佳">
  
      <defs>
        <linearGradient id="bg" x1="0%" y1="0%" x2="100%" y2="100%">
          <stop offset="0%" stop-color="#102247"/>
          <stop offset="55%" stop-color="#2D67A7"/>
          <stop offset="100%" stop-color="#9FD1FF"/>
        </linearGradient>
        <linearGradient id="soft" x1="0%" y1="0%" x2="0%" y2="100%">
          <stop offset="0%" stop-color="white" stop-opacity="0.22"/>
          <stop offset="100%" stop-color="white" stop-opacity="0"/>
        </linearGradient>
        <filter id="blur25" x="-20%" y="-20%" width="140%" height="140%">
          <feGaussianBlur stdDeviation="25"/>
        </filter>
        <filter id="blur12" x="-20%" y="-20%" width="140%" height="140%">
          <feGaussianBlur stdDeviation="12"/>
        </filter>
        <filter id="shadow" x="-20%" y="-20%" width="140%" height="140%">
          <feDropShadow dx="0" dy="18" stdDeviation="18" flood-color="#03111f" flood-opacity="0.24"/>
        </filter>
      </defs>
      <rect width="1200" height="800" rx="42" fill="url(#bg)"/>
      <circle cx="992" cy="132" r="170" fill="white" opacity="0.11" filter="url(#blur25)"/>
      <circle cx="110" cy="530" r="190" fill="white" opacity="0.10" filter="url(#blur25)"/>
      <circle cx="1060" cy="620" r="220" fill="white" opacity="0.08" filter="url(#blur25)"/>
      <path d="M0 610 C180 520, 330 530, 520 620 S 920 700, 1200 590 L 1200 800 L 0 800 Z" fill="url(#soft)" opacity="0.85"/>
    
  
      <g filter="url(#shadow)">
        <rect x="62" y="62" width="176" height="52" rx="18" fill="white" fill-opacity="0.16"/>
        <text x="150" y="95" text-anchor="middle" font-size="24" font-weight="800" fill="white">信用整理</text>
        <text x="64" y="162" font-size="30" font-weight="800" fill="white">卡費、月付、額度整理</text>
      </g>
    
  <g filter="url(#shadow)">
    <rect x="64" y="194" width="304" height="72" rx="24" fill="white" fill-opacity="0.14"/>
    <text x="216" y="240" text-anchor="middle" font-size="28" font-weight="800" fill="white">信用整理</text>
  </g>
  <g transform="translate(0,0)">
    
      <g filter="url(#shadow)">
        <rect x="650" y="210" width="400" height="320" rx="34" fill="white" fill-opacity="0.12" stroke="white" stroke-opacity="0.16"/>
        <rect x="704" y="270" width="260" height="160" rx="28" fill="#0A1730" fill-opacity="0.84"/>
        <rect x="728" y="294" width="118" height="112" rx="20" fill="#F5C85A"/>
        <rect x="766" y="322" width="122" height="68" rx="12" fill="white" fill-opacity="0.15"/>
        <rect x="760" y="302" width="152" height="96" rx="20" fill="#ffffff" fill-opacity="0.92" transform="rotate(-10 760 302)"/>
        <circle cx="918" cy="330" r="34" fill="#F5C85A"/>
        <circle cx="918" cy="330" r="18" fill="#0A1730" fill-opacity="0.18"/>
        <rect x="892" y="276" width="108" height="54" rx="18" fill="white" fill-opacity="0.15"/>
        <path d="M820 498 C850 472, 924 472, 968 498" stroke="white" stroke-opacity="0.25" stroke-width="14" fill="none" stroke-linecap="round"/>
      </g>
      <g>
        <circle cx="820" cy="350" r="25" fill="white" fill-opacity="0.9"/>
        <path d="M810 350 h20 M820 340 v20" stroke="#0C2244" stroke-width="6" stroke-linecap="round"/>
        <rect x="742" y="520" width="190" height="22" rx="11" fill="white" fill-opacity="0.20"/>
      </g>
    
  </g>
  <g filter="url(#shadow)">
    <rect x="92" y="626" width="272" height="44" rx="16" fill="white" fill-opacity="0.16"/>
    <text x="228" y="655" text-anchor="middle" font-size="22" font-weight="800" fill="white">信用評分不佳</text>
  </g>
  
              <g filter="url(#shadow)">
                <rect x="104" y="694" width="186" height="42" rx="16" fill="white" fill-opacity="0.18" stroke="white" stroke-opacity="0.14"/>
                <text x="197.0" y="721" text-anchor="middle" font-size="20" font-weight="700" fill="white">薪轉 / 卡費</text>
              </g>
            

              <g filter="url(#shadow)">
                <rect x="306" y="694" width="146" height="42" rx="16" fill="white" fill-opacity="0.18" stroke="white" stroke-opacity="0.14"/>
                <text x="379.0" y="721" text-anchor="middle" font-size="20" font-weight="700" fill="white">先看月付</text>
              </g>
            

              <g filter="url(#shadow)">
                <rect x="468" y="694" width="146" height="42" rx="16" fill="white" fill-opacity="0.18" stroke="white" stroke-opacity="0.14"/>
                <text x="541.0" y="721" text-anchor="middle" font-size="20" font-weight="700" fill="white">信用整理</text>
              </g>
            
  <g opacity="0.28">
    <circle cx="162" cy="488" r="18" fill="#F7D773"/>
    <circle cx="958" cy="194" r="20" fill="#F7D773"/>
  </g>
</svg>
