<svg xmlns="http://www.w3.org/2000/svg" viewBox="0 0 1200 800" width="1200" height="800" role="img" aria-label="多筆繳款日">
  
      <defs>
        <linearGradient id="bg" x1="0%" y1="0%" x2="100%" y2="100%">
          <stop offset="0%" stop-color="#101C37"/>
          <stop offset="55%" stop-color="#285BA2"/>
          <stop offset="100%" stop-color="#D7EEFF"/>
        </linearGradient>
        <linearGradient id="soft" x1="0%" y1="0%" x2="0%" y2="100%">
          <stop offset="0%" stop-color="white" stop-opacity="0.22"/>
          <stop offset="100%" stop-color="white" stop-opacity="0"/>
        </linearGradient>
        <filter id="blur25" x="-20%" y="-20%" width="140%" height="140%">
          <feGaussianBlur stdDeviation="25"/>
        </filter>
        <filter id="blur12" x="-20%" y="-20%" width="140%" height="140%">
          <feGaussianBlur stdDeviation="12"/>
        </filter>
        <filter id="shadow" x="-20%" y="-20%" width="140%" height="140%">
          <feDropShadow dx="0" dy="18" stdDeviation="18" flood-color="#03111f" flood-opacity="0.24"/>
        </filter>
      </defs>
      <rect width="1200" height="800" rx="42" fill="url(#bg)"/>
      <circle cx="992" cy="132" r="170" fill="white" opacity="0.11" filter="url(#blur25)"/>
      <circle cx="110" cy="530" r="190" fill="white" opacity="0.10" filter="url(#blur25)"/>
      <circle cx="1060" cy="620" r="220" fill="white" opacity="0.08" filter="url(#blur25)"/>
      <path d="M0 610 C180 520, 330 530, 520 620 S 920 700, 1200 590 L 1200 800 L 0 800 Z" fill="url(#soft)" opacity="0.85"/>
    
  
      <g filter="url(#shadow)">
        <rect x="62" y="62" width="176" height="52" rx="18" fill="white" fill-opacity="0.16"/>
        <text x="150" y="95" text-anchor="middle" font-size="24" font-weight="800" fill="white">壓力整理</text>
        <text x="64" y="162" font-size="30" font-weight="800" fill="white">帳單整併、月付重整</text>
      </g>
    
  <g filter="url(#shadow)">
    <rect x="64" y="194" width="304" height="72" rx="24" fill="white" fill-opacity="0.14"/>
    <text x="216" y="240" text-anchor="middle" font-size="28" font-weight="800" fill="white">壓力整理</text>
  </g>
  <g transform="translate(10,0)">
    
      <g filter="url(#shadow)">
        <rect x="638" y="214" width="420" height="316" rx="34" fill="white" fill-opacity="0.12" stroke="white" stroke-opacity="0.16"/>
        <rect x="690" y="270" width="230" height="64" rx="18" fill="#ffffff" fill-opacity="0.9"/>
        <rect x="708" y="298" width="176" height="16" rx="8" fill="#F3C96A"/>
        <rect x="698" y="346" width="250" height="66" rx="18" fill="white" fill-opacity="0.15"/>
        <rect x="716" y="364" width="110" height="16" rx="8" fill="white" fill-opacity="0.75"/>
        <path d="M946 292 L1030 292 L1000 258" stroke="#F3C96A" stroke-width="14" fill="none" stroke-linecap="round" stroke-linejoin="round"/>
        <path d="M946 292 L1000 326" stroke="#F3C96A" stroke-width="14" fill="none" stroke-linecap="round"/>
        <rect x="824" y="426" width="132" height="96" rx="20" fill="#061225" fill-opacity="0.82"/>
        <circle cx="868" cy="472" r="24" fill="#F3C96A"/>
        <path d="M858 472 h20 M868 462 v20" stroke="#0C2244" stroke-width="6" stroke-linecap="round"/>
      </g>
    
  </g>
  <g filter="url(#shadow)">
    <rect x="92" y="626" width="272" height="44" rx="16" fill="white" fill-opacity="0.16"/>
    <text x="228" y="655" text-anchor="middle" font-size="22" font-weight="800" fill="white">多筆繳款日</text>
  </g>
  
              <g filter="url(#shadow)">
                <rect x="104" y="694" width="146" height="42" rx="16" fill="white" fill-opacity="0.18" stroke="white" stroke-opacity="0.14"/>
                <text x="177.0" y="721" text-anchor="middle" font-size="20" font-weight="700" fill="white">整合月付</text>
              </g>
            

              <g filter="url(#shadow)">
                <rect x="266" y="694" width="146" height="42" rx="16" fill="white" fill-opacity="0.18" stroke="white" stroke-opacity="0.14"/>
                <text x="339.0" y="721" text-anchor="middle" font-size="20" font-weight="700" fill="white">先盤點</text>
              </g>
            

              <g filter="url(#shadow)">
                <rect x="428" y="694" width="146" height="42" rx="16" fill="white" fill-opacity="0.18" stroke="white" stroke-opacity="0.14"/>
                <text x="501.0" y="721" text-anchor="middle" font-size="20" font-weight="700" fill="white">壓力整理</text>
              </g>
            
  <g opacity="0.28">
    <circle cx="185" cy="487" r="18" fill="#FFD77D"/>
    <circle cx="955" cy="197" r="20" fill="#FFD77D"/>
  </g>
</svg>
