<svg xmlns="http://www.w3.org/2000/svg" viewBox="0 0 1200 800" width="1200" height="800" role="img" aria-label="先看條件">
  
      <defs>
        <linearGradient id="bg" x1="0%" y1="0%" x2="100%" y2="100%">
          <stop offset="0%" stop-color="#11213E"/>
          <stop offset="55%" stop-color="#2F6AB3"/>
          <stop offset="100%" stop-color="#D4EEFF"/>
        </linearGradient>
        <linearGradient id="soft" x1="0%" y1="0%" x2="0%" y2="100%">
          <stop offset="0%" stop-color="white" stop-opacity="0.22"/>
          <stop offset="100%" stop-color="white" stop-opacity="0"/>
        </linearGradient>
        <filter id="blur25" x="-20%" y="-20%" width="140%" height="140%">
          <feGaussianBlur stdDeviation="25"/>
        </filter>
        <filter id="blur12" x="-20%" y="-20%" width="140%" height="140%">
          <feGaussianBlur stdDeviation="12"/>
        </filter>
        <filter id="shadow" x="-20%" y="-20%" width="140%" height="140%">
          <feDropShadow dx="0" dy="18" stdDeviation="18" flood-color="#03111f" flood-opacity="0.24"/>
        </filter>
      </defs>
      <rect width="1200" height="800" rx="42" fill="url(#bg)"/>
      <circle cx="992" cy="132" r="170" fill="white" opacity="0.11" filter="url(#blur25)"/>
      <circle cx="110" cy="530" r="190" fill="white" opacity="0.10" filter="url(#blur25)"/>
      <circle cx="1060" cy="620" r="220" fill="white" opacity="0.08" filter="url(#blur25)"/>
      <path d="M0 610 C180 520, 330 530, 520 620 S 920 700, 1200 590 L 1200 800 L 0 800 Z" fill="url(#soft)" opacity="0.85"/>
    
  
      <g filter="url(#shadow)">
        <rect x="62" y="62" width="176" height="52" rx="18" fill="white" fill-opacity="0.16"/>
        <text x="150" y="95" text-anchor="middle" font-size="24" font-weight="800" fill="white">小額靈活</text>
        <text x="64" y="162" font-size="30" font-weight="800" fill="white">免留機、短期小額</text>
      </g>
    
  <g filter="url(#shadow)">
    <rect x="64" y="194" width="304" height="72" rx="24" fill="white" fill-opacity="0.14"/>
    <text x="216" y="240" text-anchor="middle" font-size="28" font-weight="800" fill="white">小額靈活</text>
  </g>
  <g transform="translate(0,0)">
    
      <g filter="url(#shadow)">
        <rect x="680" y="196" width="350" height="352" rx="34" fill="white" fill-opacity="0.12" stroke="white" stroke-opacity="0.16"/>
        <rect x="782" y="232" width="126" height="206" rx="28" fill="white" fill-opacity="0.92"/>
        <rect x="803" y="252" width="84" height="110" rx="18" fill="#7DE4C8"/>
        <circle cx="845" cy="388" r="20" fill="#0A1730" fill-opacity="0.08"/>
        <path d="M836 336 L850 350 L874 324" stroke="white" stroke-width="8" fill="none" stroke-linecap="round" stroke-linejoin="round"/>
        <circle cx="724" cy="470" r="56" fill="#7DE4C8" fill-opacity="0.24"/>
        <path d="M712 472 h24 M724 460 v24" stroke="white" stroke-width="8" stroke-linecap="round"/>
      </g>
    
  </g>
  <g filter="url(#shadow)">
    <rect x="92" y="626" width="272" height="44" rx="16" fill="white" fill-opacity="0.16"/>
    <text x="228" y="655" text-anchor="middle" font-size="22" font-weight="800" fill="white">先看條件</text>
  </g>
  
              <g filter="url(#shadow)">
                <rect x="104" y="694" width="146" height="42" rx="16" fill="white" fill-opacity="0.18" stroke="white" stroke-opacity="0.14"/>
                <text x="177.0" y="721" text-anchor="middle" font-size="20" font-weight="700" fill="white">免留機</text>
              </g>
            

              <g filter="url(#shadow)">
                <rect x="266" y="694" width="146" height="42" rx="16" fill="white" fill-opacity="0.18" stroke="white" stroke-opacity="0.14"/>
                <text x="339.0" y="721" text-anchor="middle" font-size="20" font-weight="700" fill="white">快速評估</text>
              </g>
            

              <g filter="url(#shadow)">
                <rect x="428" y="694" width="146" height="42" rx="16" fill="white" fill-opacity="0.18" stroke="white" stroke-opacity="0.14"/>
                <text x="501.0" y="721" text-anchor="middle" font-size="20" font-weight="700" fill="white">小額急用</text>
              </g>
            
  <g opacity="0.28">
    <circle cx="190" cy="488" r="18" fill="#7BE7C8"/>
    <circle cx="950" cy="202" r="20" fill="#7BE7C8"/>
  </g>
</svg>
