<svg xmlns="http://www.w3.org/2000/svg" viewBox="0 0 1200 800" width="1200" height="800" role="img" aria-label="分期安排">
  
      <defs>
        <linearGradient id="bg" x1="0%" y1="0%" x2="100%" y2="100%">
          <stop offset="0%" stop-color="#10213E"/>
          <stop offset="55%" stop-color="#3666AA"/>
          <stop offset="100%" stop-color="#D9EEFF"/>
        </linearGradient>
        <linearGradient id="soft" x1="0%" y1="0%" x2="0%" y2="100%">
          <stop offset="0%" stop-color="white" stop-opacity="0.22"/>
          <stop offset="100%" stop-color="white" stop-opacity="0"/>
        </linearGradient>
        <filter id="blur25" x="-20%" y="-20%" width="140%" height="140%">
          <feGaussianBlur stdDeviation="25"/>
        </filter>
        <filter id="blur12" x="-20%" y="-20%" width="140%" height="140%">
          <feGaussianBlur stdDeviation="12"/>
        </filter>
        <filter id="shadow" x="-20%" y="-20%" width="140%" height="140%">
          <feDropShadow dx="0" dy="18" stdDeviation="18" flood-color="#03111f" flood-opacity="0.24"/>
        </filter>
      </defs>
      <rect width="1200" height="800" rx="42" fill="url(#bg)"/>
      <circle cx="992" cy="132" r="170" fill="white" opacity="0.11" filter="url(#blur25)"/>
      <circle cx="110" cy="530" r="190" fill="white" opacity="0.10" filter="url(#blur25)"/>
      <circle cx="1060" cy="620" r="220" fill="white" opacity="0.08" filter="url(#blur25)"/>
      <path d="M0 610 C180 520, 330 530, 520 620 S 920 700, 1200 590 L 1200 800 L 0 800 Z" fill="url(#soft)" opacity="0.85"/>
    
  
      <g filter="url(#shadow)">
        <rect x="62" y="62" width="176" height="52" rx="18" fill="white" fill-opacity="0.16"/>
        <text x="150" y="95" text-anchor="middle" font-size="24" font-weight="800" fill="white">商品週轉</text>
        <text x="64" y="162" font-size="30" font-weight="800" fill="white">採購、備貨、設備資金</text>
      </g>
    
  <g filter="url(#shadow)">
    <rect x="64" y="194" width="304" height="72" rx="24" fill="white" fill-opacity="0.14"/>
    <text x="216" y="240" text-anchor="middle" font-size="28" font-weight="800" fill="white">商品週轉</text>
  </g>
  <g transform="translate(10,0)">
    
      <g filter="url(#shadow)">
        <rect x="646" y="214" width="410" height="316" rx="34" fill="white" fill-opacity="0.12" stroke="white" stroke-opacity="0.16"/>
        <rect x="724" y="272" width="128" height="112" rx="18" fill="white" fill-opacity="0.82"/>
        <rect x="736" y="284" width="104" height="18" rx="9" fill="#F7B96C"/>
        <rect x="742" y="316" width="92" height="44" rx="12" fill="#ffffff" fill-opacity="0.15"/>
        <rect x="890" y="286" width="132" height="100" rx="18" fill="#F7B96C"/>
        <rect x="918" y="314" width="76" height="44" rx="12" fill="white" fill-opacity="0.9"/>
        <path d="M760 426 H1008" stroke="white" stroke-opacity="0.22" stroke-width="10" stroke-linecap="round"/>
        <path d="M902 240 L986 240 L986 286" stroke="white" stroke-opacity="0.78" stroke-width="6" fill="none" stroke-linecap="round" stroke-linejoin="round"/>
      </g>
    
  </g>
  <g filter="url(#shadow)">
    <rect x="92" y="626" width="272" height="44" rx="16" fill="white" fill-opacity="0.16"/>
    <text x="228" y="655" text-anchor="middle" font-size="22" font-weight="800" fill="white">分期安排</text>
  </g>
  
              <g filter="url(#shadow)">
                <rect x="104" y="694" width="146" height="42" rx="16" fill="white" fill-opacity="0.18" stroke="white" stroke-opacity="0.14"/>
                <text x="177.0" y="721" text-anchor="middle" font-size="20" font-weight="700" fill="white">備貨採購</text>
              </g>
            

              <g filter="url(#shadow)">
                <rect x="266" y="694" width="146" height="42" rx="16" fill="white" fill-opacity="0.18" stroke="white" stroke-opacity="0.14"/>
                <text x="339.0" y="721" text-anchor="middle" font-size="20" font-weight="700" fill="white">設備支出</text>
              </g>
            

              <g filter="url(#shadow)">
                <rect x="428" y="694" width="146" height="42" rx="16" fill="white" fill-opacity="0.18" stroke="white" stroke-opacity="0.14"/>
                <text x="501.0" y="721" text-anchor="middle" font-size="20" font-weight="700" fill="white">商品週轉</text>
              </g>
            
  <g opacity="0.28">
    <circle cx="215" cy="479" r="18" fill="#F8BD70"/>
    <circle cx="945" cy="217" r="20" fill="#F8BD70"/>
  </g>
</svg>
