<svg xmlns="http://www.w3.org/2000/svg" viewBox="0 0 1200 800" width="1200" height="800" role="img" aria-label="文件較少">
  
      <defs>
        <linearGradient id="bg" x1="0%" y1="0%" x2="100%" y2="100%">
          <stop offset="0%" stop-color="#12203C"/>
          <stop offset="55%" stop-color="#2A69B7"/>
          <stop offset="100%" stop-color="#D8F2FF"/>
        </linearGradient>
        <linearGradient id="soft" x1="0%" y1="0%" x2="0%" y2="100%">
          <stop offset="0%" stop-color="white" stop-opacity="0.22"/>
          <stop offset="100%" stop-color="white" stop-opacity="0"/>
        </linearGradient>
        <filter id="blur25" x="-20%" y="-20%" width="140%" height="140%">
          <feGaussianBlur stdDeviation="25"/>
        </filter>
        <filter id="blur12" x="-20%" y="-20%" width="140%" height="140%">
          <feGaussianBlur stdDeviation="12"/>
        </filter>
        <filter id="shadow" x="-20%" y="-20%" width="140%" height="140%">
          <feDropShadow dx="0" dy="18" stdDeviation="18" flood-color="#03111f" flood-opacity="0.24"/>
        </filter>
      </defs>
      <rect width="1200" height="800" rx="42" fill="url(#bg)"/>
      <circle cx="992" cy="132" r="170" fill="white" opacity="0.11" filter="url(#blur25)"/>
      <circle cx="110" cy="530" r="190" fill="white" opacity="0.10" filter="url(#blur25)"/>
      <circle cx="1060" cy="620" r="220" fill="white" opacity="0.08" filter="url(#blur25)"/>
      <path d="M0 610 C180 520, 330 530, 520 620 S 920 700, 1200 590 L 1200 800 L 0 800 Z" fill="url(#soft)" opacity="0.85"/>
    
  
      <g filter="url(#shadow)">
        <rect x="62" y="62" width="176" height="52" rx="18" fill="white" fill-opacity="0.16"/>
        <text x="150" y="95" text-anchor="middle" font-size="24" font-weight="800" fill="white">機車規劃</text>
        <text x="64" y="162" font-size="30" font-weight="800" fill="white">小額週轉、通勤資金</text>
      </g>
    
  <g filter="url(#shadow)">
    <rect x="64" y="194" width="304" height="72" rx="24" fill="white" fill-opacity="0.14"/>
    <text x="216" y="240" text-anchor="middle" font-size="28" font-weight="800" fill="white">機車規劃</text>
  </g>
  <g transform="translate(0,0)">
    
      <g filter="url(#shadow)">
        <rect x="648" y="210" width="410" height="320" rx="34" fill="white" fill-opacity="0.12" stroke="white" stroke-opacity="0.16"/>
        <circle cx="760" cy="434" r="34" fill="#0A1730" fill-opacity="0.88"/>
        <circle cx="970" cy="434" r="34" fill="#0A1730" fill-opacity="0.88"/>
        <path d="M752 352 H862 L912 394 H1002" stroke="white" stroke-opacity="0.9" stroke-width="14" fill="none" stroke-linecap="round" stroke-linejoin="round"/>
        <path d="M842 282 H910 L944 324" stroke="#7DE4C8" stroke-width="12" fill="none" stroke-linecap="round" stroke-linejoin="round"/>
        <rect x="930" y="274" width="72" height="56" rx="16" fill="#7DE4C8"/>
        <path d="M948 292 h36" stroke="#0A1730" stroke-width="6" stroke-linecap="round"/>
        <path d="M948 292 v18" stroke="#0A1730" stroke-width="6" stroke-linecap="round"/>
      </g>
    
  </g>
  <g filter="url(#shadow)">
    <rect x="92" y="626" width="272" height="44" rx="16" fill="white" fill-opacity="0.16"/>
    <text x="228" y="655" text-anchor="middle" font-size="22" font-weight="800" fill="white">文件較少</text>
  </g>
  
              <g filter="url(#shadow)">
                <rect x="104" y="694" width="146" height="42" rx="16" fill="white" fill-opacity="0.18" stroke="white" stroke-opacity="0.14"/>
                <text x="177.0" y="721" text-anchor="middle" font-size="20" font-weight="700" fill="white">通勤資金</text>
              </g>
            

              <g filter="url(#shadow)">
                <rect x="266" y="694" width="186" height="42" rx="16" fill="white" fill-opacity="0.18" stroke="white" stroke-opacity="0.14"/>
                <text x="359.0" y="721" text-anchor="middle" font-size="20" font-weight="700" fill="white">車齡 / 車況</text>
              </g>
            

              <g filter="url(#shadow)">
                <rect x="468" y="694" width="146" height="42" rx="16" fill="white" fill-opacity="0.18" stroke="white" stroke-opacity="0.14"/>
                <text x="541.0" y="721" text-anchor="middle" font-size="20" font-weight="700" fill="white">小額週轉</text>
              </g>
            
  <g opacity="0.28">
    <circle cx="224" cy="490" r="18" fill="#81E7CB"/>
    <circle cx="936" cy="206" r="20" fill="#81E7CB"/>
  </g>
</svg>
